<?xml version="1.0" standalone="no"?>
<!DOCTYPE svg PUBLIC "-//W3C//DTD SVG 20010904//EN"
 "http://www.w3.org/TR/2001/REC-SVG-20010904/DTD/svg10.dtd">
<svg version="1.0" xmlns="http://www.w3.org/2000/svg"
 width="512.000000pt" height="512.000000pt" viewBox="0 0 512.000000 512.000000"
 preserveAspectRatio="xMidYMid meet">
<metadata>
Created by potrace 1.14, written by Peter Selinger 2001-2017
</metadata>
<g transform="translate(0.000000,512.000000) scale(0.100000,-0.100000)"
fill="#000000" stroke="none">
<path d="M2450 5054 c-73 -27 -114 -61 -354 -302 l-228 -229 289 -290 c267
-268 291 -289 314 -281 40 15 120 15 184 1 167 -38 286 -183 291 -354 2 -43
-1 -93 -7 -111 l-9 -33 277 -277 c200 -200 282 -276 295 -273 48 16 138 21
183 11 199 -43 333 -236 302 -436 -28 -190 -204 -334 -395 -324 -241 12 -408
233 -355 471 l14 62 -255 256 c-141 140 -256 250 -257 243 -1 -7 -2 -312 -3
-678 l-1 -665 46 -32 c216 -149 224 -468 16 -622 -70 -51 -129 -73 -209 -76
-306 -14 -505 311 -352 573 34 58 94 116 145 143 36 18 39 22 39 64 1 68 0
1249 0 1293 0 33 -5 40 -40 60 -127 72 -201 203 -194 342 3 67 5 79 18 118 7
20 -26 56 -272 302 -154 154 -283 280 -288 280 -5 0 -356 -348 -780 -772 -865
-866 -809 -801 -809 -953 1 -145 -77 -58 1188 -1322 1231 -1230 1162 -1167
1289 -1180 64 -6 131 8 188 40 19 11 540 524 1157 1140 940 940 1126 1129
1149 1176 24 48 28 68 28 141 0 68 -5 95 -24 135 -19 41 -233 260 -1153 1182
-923 924 -1140 1136 -1184 1159 -69 35 -175 42 -243 18z"/>
</g>
</svg>
